Coordinates
version=1
nRows=10
nColumns=46
inDegrees=yes

Units are S.I. units (second, meters, Newtons, ...)
Angles are in degrees.

endheader
time	pelvis_tilt	pelvis_list	pelvis_rotation	pelvis_tx	pelvis_ty	pelvis_tz	bb_angle	bb_tx	bb_ty	bb_tz	hip_flexion_r	hip_adduction_r	hip_rotation_r	knee_angle_r	knee_angle_r_beta	ankle_angle_r	subtalar_angle_r	mtp_angle_r	crank_angle_r	hip_flexion_l	hip_adduction_l	hip_rotation_l	knee_angle_l	knee_angle_l_beta	ankle_angle_l	subtalar_angle_l	mtp_angle_l	crank_angle_l	lumbar_extension	lumbar_bending	lumbar_rotation	arm_flex_r	arm_add_r	arm_rot_r	elbow_flex_r	pro_sup_r	wrist_flex_r	wrist_dev_r	arm_flex_l	arm_add_l	arm_rot_l	elbow_flex_l	pro_sup_l	wrist_flex_l	wrist_dev_l
      5.00000000	    -16.22708423	     -1.96384286	     -6.70879899	      0.15638890	      1.14292283	     -0.23615964	      0.00000000	      0.50000000	      0.00000000	      0.25000000	     61.74208125	      4.12345787	      6.88024461	     55.23262728	      0.96399120	     16.77590453	     -9.75811289	      0.00000000	      0.00000000	     54.96938924	    -10.19953735	      1.59794528	     77.16121735	      1.34671730	    -14.82928892	     -6.07484043	      0.00000000	      0.00000000	    -63.04210675	     -0.61923001	      2.13179613	     89.51526220	     -5.36335110	     31.63893132	     52.07639873	     29.71736265	      0.00000000	      0.00000000	     89.27672724	    -17.01981786	     27.21368207	     49.26625828	     29.81182192	      0.00000000	      0.00000000
      5.00500000	    -16.04296859	     -1.26046516	     -6.27464367	      0.15720485	      1.14060307	     -0.23480611	      0.00000000	      0.50000000	      0.00000000	      0.25000000	     60.43619059	      3.39612688	      7.24532419	     53.19858706	      0.92849050	     15.71823990	     -9.96819597	      0.00000000	      0.00000000	     56.16452116	     -9.34402933	      1.84644764	     79.78231133	      1.39246402	    -14.21610091	     -6.03467310	      0.00000000	      0.00000000	    -62.95362809	     -0.89633973	      1.30034338	     89.48313227	     -5.42162762	     31.85865252	     51.79167976	     29.78273020	      0.00000000	      0.00000000	     89.27939428	    -17.06214588	     27.36994952	     49.31957678	     29.98569190	      0.00000000	      0.00000000
      5.01000000	    -15.82739776	     -0.46315094	     -5.78635158	      0.15809197	      1.13841688	     -0.23335486	      0.00000000	      0.50000000	      0.00000000	      0.25000000	     59.03871412	      2.56421601	      7.69433957	     51.12483510	      0.89229670	     14.88124077	     -9.90604979	      0.00000000	      0.00000000	     57.29799713	     -8.38389970	      1.99966173	     82.27322458	      1.43593866	    -13.68213662	     -6.09719810	      0.00000000	      0.00000000	    -62.89238607	     -1.24886593	      0.42559188	     89.43186833	     -5.60262451	     31.91943799	     51.63837612	     29.78748169	      0.00000000	      0.00000000	     89.29483863	    -16.94593712	     27.52462810	     49.34432713	     30.03456702	      0.00000000	      0.00000000
      5.01500000	    -15.49601290	      0.26689318	     -5.32660931	      0.15906143	      1.13574485	     -0.23152265	      0.00000000	      0.50000000	      0.00000000	      0.25000000	     57.58716768	      1.84100122	      8.18638208	     49.34199649	      0.86118030	     14.18953857	     -9.85644648	      0.00000000	      0.00000000	     58.59955464	     -7.90250701	      1.74807731	     85.03927896	      1.48421541	    -13.49077978	     -5.98815693	      0.00000000	      0.00000000	    -62.86853610	     -1.68016493	     -0.48189753	     89.36186940	     -5.78446559	     31.98825426	     51.47527614	     29.78070752	      0.00000000	      0.00000000	     89.31637502	    -16.80943992	     27.68656477	     49.35216196	     30.06455242	      0.00000000	      0.00000000
      5.02000000	    -15.62480374	      0.75587453	     -4.65823708	      0.15973648	      1.13333857	     -0.23015644	      0.00000000	      0.50000000	      0.00000000	      0.25000000	     56.28539658	      1.22268595	      8.65205255	     46.97420006	      0.81985445	     12.51828067	    -11.28983313	      0.00000000	      0.00000000	     60.06333895	     -6.82872446	      2.49514844	     87.29105095	      1.52351625	    -12.50338279	     -5.56943477	      0.00000000	      0.00000000	    -62.36118170	     -1.59163313	     -1.42433726	     89.39057992	     -5.59241985	     33.19086503	     50.40427661	     29.82728033	      0.00000000	      0.00000000	     89.30567725	    -17.45779362	     28.58590273	     49.22102041	     30.24846629	      0.00000000	      0.00000000
      5.02500000	    -15.49487023	      1.58108955	     -3.93405020	      0.16058994	      1.13093517	     -0.22866563	      0.00000000	      0.50000000	      0.00000000	      0.25000000	     54.92508522	      0.22505311	      9.23728786	     45.14726069	      0.78796835	     11.90104353	    -11.11797271	      0.00000000	      0.00000000	     61.36128763	     -5.70114955	      2.65694697	     89.57740518	      1.56342066	    -12.04923928	     -5.57652110	      0.00000000	      0.00000000	    -62.14486281	     -1.93650868	     -2.44902564	     89.29847803	     -5.85179263	     33.16010384	     50.20081249	     29.83004762	      0.00000000	      0.00000000	     89.33756579	    -17.22229593	     28.81096479	     49.27930967	     30.30881026	      0.00000000	      0.00000000
      5.03000000	    -15.38473169	      2.33154948	     -2.90536596	      0.16144328	      1.12900007	     -0.22786203	      0.00000000	      0.50000000	      0.00000000	      0.25000000	     53.44898047	     -0.98949098	      9.52495343	     43.13804214	      0.75290087	     10.63456322	    -11.92604031	      0.00000000	      0.00000000	     62.67700830	     -4.33228774	      2.92193339	     91.70576270	      1.60056750	    -11.40732801	     -5.33522574	      0.00000000	      0.00000000	    -61.84720663	     -1.87529495	     -3.57741525	     89.26209191	     -5.98664751	     33.75618995	     49.33117241	     29.81194018	      0.00000000	      0.00000000	     89.34396601	    -17.18323205	     29.46938768	     49.00396705	     30.37460356	      0.00000000	      0.00000000
      5.03500000	    -15.13942186	      3.54435817	     -2.23678558	      0.16304813	      1.12779109	     -0.22716273	      0.00000000	      0.50000000	      0.00000000	      0.25000000	     51.86921057	     -2.39242813	     10.23040229	     41.24146597	      0.71979937	      9.88736905	    -11.76575715	      0.00000000	      0.00000000	     63.64423259	     -2.97379923	      2.50588508	     93.66876790	      1.63482841	    -10.70722781	     -5.34005858	      0.00000000	      0.00000000	    -61.76483256	     -2.42270180	     -4.83887971	     89.18021472	     -6.35764220	     33.89746391	     48.84949899	     29.79375597	      0.00000000	      0.00000000	     89.34894399	    -16.95092676	     29.85349799	     48.90214787	     30.42411066	      0.00000000	      0.00000000
      5.04000000	    -14.56065478	      5.02254027	     -1.43456535	      0.16445660	      1.12735677	     -0.22631195	      0.00000000	      0.50000000	      0.00000000	      0.25000000	     50.01442173	     -4.13586138	     10.86534445	     39.49944403	      0.68939535	      8.80144295	    -12.09705687	      0.00000000	      0.00000000	     64.16835813	     -1.31980755	      1.87970213	     95.37661490	      1.66463596	    -10.04776421	     -5.32669823	      0.00000000	      0.00000000	    -61.99270478	     -3.13127911	     -6.63881205	     89.20567832	     -6.60491098	     34.98610817	     47.52052834	     29.76521498	      0.00000000	      0.00000000	     89.42653619	    -16.80811570	     30.93320645	     48.25671108	     30.44682936	      0.00000000	      0.00000000
      5.04500000	    -14.66227860	      5.73819070	     -0.64110303	      0.16513857	      1.12550644	     -0.22475488	      0.00000000	      0.50000000	      0.00000000	      0.25000000	     48.75761775	     -5.12776794	     11.20544232	     37.73324250	      0.65856932	      7.99265023	    -11.94785231	      0.00000000	      0.00000000	     65.68993056	     -0.31896525	      1.85617710	     97.27580258	      1.69778304	     -9.40738081	     -5.50360068	      0.00000000	      0.00000000	    -61.61722937	     -3.50685200	     -7.64520653	     89.11936583	     -7.00380955	     35.21123832	     47.09543736	     29.74152440	      0.00000000	      0.00000000	     89.45593954	    -16.56241606	     31.24902551	     48.23906907	     30.47940060	      0.00000000	      0.00000000
